<svg version="1.0" xmlns="http://www.w3.org/2000/svg" width="700" height="700" viewBox="0 0 700 700">
  <g transform="translate(0,700) scale(0.1,-0.1)" fill="#000000" stroke="none">
    <path d="M3200 6500 c-1378 -126 -2544 -1050 -3050 -2415 -129 -348 -180 -665 -180 -1085 0 -420 51 -737 180 -1085 506 -1365 1672 -2289 3050 -2415 348 -32 702 -32 1050 0 1378 126 2544 1050 3050 2415 129 348 180 665 180 1085 0 420 -51 737 -180 1085 -506 1365 -1672 2289 -3050 2415 -174 16 -876 16 -1050 0z"/>
    <path d="M1500 4500 l0 -1000 200 0 200 0 0 1000 0 1000 -200 0 -200 0 0 -1000z"/>
    <path d="M2500 4500 l0 -800 c0 -440 4 -800 9 -800 5 0 91 0 191 0 l181 0 0 800 c0 440 -4 800 -9 800 -5 0 -86 0 -181 0 l-191 0 0 -800z"/>
    <path d="M4000 4500 l0 -1000 200 0 200 0 0 400 400 0 400 0 0 200 0 200 -400 0 -400 0 0 400 0 400 -200 0 -200 0 0 -1000z"/>
  </g>
</svg>
